# xmcd
#
# Track frame offsets:
#  150
#  9597
#  20186
#  31198
#  41560
#  52649
#  60538
#  70529
#  83159
#  93442
#  106413
#  114680
#
# Disc length: 1688 seconds
#
# Revision: 0
# Processed by: cddbd v1.5.1PL2 Copyright (c) Steve Scherf et al.
# Submitted via: Collectorz.com_Music_Collector 6.9
#
DISCID=8e06960c
DTITLE=Cash, Johnny - All Aboard The Blue Train
DYEAR=1962
DGENRE=Traditional Country
TTITLE0=Blue Train 
TTITLE1=There You Go 
TTITLE2=Train Of Love 
TTITLE3=Goodbye Little Darling 
TTITLE4=I Heard That Lonesome Whistle 
TTITLE5=Come In Stranger  
TTITLE6=Rock Island Line  
TTITLE7=Give My Love To Rose 
TTITLE8=Hey Porter 
TTITLE9=Folsom Prison Blues 
TTITLE10=The Wreck Of The Old 97 
TTITLE11=So Doggone Lonesome 
EXTD=
EXTT0=
EXTT1=
EXTT2=
EXTT3=
EXTT4=
EXTT5=
EXTT6=
EXTT7=
EXTT8=
EXTT9=
EXTT10=
EXTT11=
PLAYORDER=
